<?xml version="1.0" encoding="UTF-8"?>
<svg width="363px" height="57px" viewBox="0 0 363 57" version="1.1" xmlns="http://www.w3.org/2000/svg" xmlns:xlink="http://www.w3.org/1999/xlink">
    <title>socialocean_mainLogo_gradiant Copy</title>
    <defs>
        <linearGradient x1="-310.860527%" y1="47.0981291%" x2="701.495532%" y2="54.7703503%" id="linearGradient-1">
            <stop stop-color="#FBBF5B" offset="0%"></stop>
            <stop stop-color="#FC5899" offset="78.82%"></stop>
            <stop stop-color="#E44DA3" offset="100%"></stop>
        </linearGradient>
        <linearGradient x1="-785.56341%" y1="43.5189059%" x2="228.394212%" y2="51.166964%" id="linearGradient-2">
            <stop stop-color="#FBBF5B" offset="0%"></stop>
            <stop stop-color="#FC5899" offset="78.82%"></stop>
            <stop stop-color="#E44DA3" offset="100%"></stop>
        </linearGradient>
        <linearGradient x1="-83.2820874%" y1="49.0306315%" x2="940.311908%" y2="56.1210192%" id="linearGradient-3">
            <stop stop-color="#FBBF5B" offset="0%"></stop>
            <stop stop-color="#FC5899" offset="78.82%"></stop>
            <stop stop-color="#E44DA3" offset="100%"></stop>
        </linearGradient>
        <linearGradient x1="-859.796504%" y1="42.9888268%" x2="122.460208%" y2="50.6164129%" id="linearGradient-4">
            <stop stop-color="#FBBF5B" offset="0%"></stop>
            <stop stop-color="#FC5899" offset="78.82%"></stop>
            <stop stop-color="#E44DA3" offset="100%"></stop>
        </linearGradient>
        <linearGradient x1="-520.393139%" y1="46.042167%" x2="509.040773%" y2="53.2080633%" id="linearGradient-5">
            <stop stop-color="#FBBF5B" offset="0%"></stop>
            <stop stop-color="#FC5899" offset="78.82%"></stop>
            <stop stop-color="#E44DA3" offset="100%"></stop>
        </linearGradient>
        <linearGradient x1="-628.236504%" y1="44.3374495%" x2="300.031136%" y2="51.9509221%" id="linearGradient-6">
            <stop stop-color="#FBBF5B" offset="0%"></stop>
            <stop stop-color="#FC5899" offset="78.82%"></stop>
            <stop stop-color="#E44DA3" offset="100%"></stop>
        </linearGradient>
        <linearGradient x1="18.6433571%" y1="49.9850653%" x2="913.108926%" y2="57.638567%" id="linearGradient-7">
            <stop stop-color="#FBBF5B" offset="0%"></stop>
            <stop stop-color="#FC5899" offset="78.82%"></stop>
            <stop stop-color="#E44DA3" offset="100%"></stop>
        </linearGradient>
        <linearGradient x1="-20.9062747%" y1="47.7368346%" x2="142.841219%" y2="52.9986604%" id="linearGradient-8">
            <stop stop-color="#FBBF5B" offset="0%"></stop>
            <stop stop-color="#FC5899" offset="78.82%"></stop>
            <stop stop-color="#E44DA3" offset="100%"></stop>
        </linearGradient>
        <linearGradient x1="-149.344244%" y1="48.264932%" x2="738.015155%" y2="55.9556795%" id="linearGradient-9">
            <stop stop-color="#FBBF5B" offset="0%"></stop>
            <stop stop-color="#FC5899" offset="78.82%"></stop>
            <stop stop-color="#E44DA3" offset="100%"></stop>
        </linearGradient>
        <linearGradient x1="-517.74776%" y1="44.9614849%" x2="358.192714%" y2="52.6166232%" id="linearGradient-10">
            <stop stop-color="#FBBF5B" offset="0%"></stop>
            <stop stop-color="#FC5899" offset="78.82%"></stop>
            <stop stop-color="#E44DA3" offset="100%"></stop>
        </linearGradient>
        <linearGradient x1="-41.2600801%" y1="47.7125091%" x2="277.475318%" y2="55.3446014%" id="linearGradient-11">
            <stop stop-color="#FBBF5B" offset="0%"></stop>
            <stop stop-color="#FC5899" offset="78.82%"></stop>
            <stop stop-color="#E44DA3" offset="100%"></stop>
        </linearGradient>
        <linearGradient x1="-1193.82667%" y1="40.7%" x2="3341.00722%" y2="73.9627778%" id="linearGradient-12">
            <stop stop-color="#FBBF5B" offset="0%"></stop>
            <stop stop-color="#FC5899" offset="78.82%"></stop>
            <stop stop-color="#E44DA3" offset="100%"></stop>
        </linearGradient>
        <linearGradient x1="-1856.47381%" y1="36.0944444%" x2="4621.86111%" y2="83.6126984%" id="linearGradient-13">
            <stop stop-color="#FBBF5B" offset="0%"></stop>
            <stop stop-color="#FC5899" offset="78.82%"></stop>
            <stop stop-color="#E44DA3" offset="100%"></stop>
        </linearGradient>
        <linearGradient x1="-2709.3019%" y1="29.6331982%" x2="6973.17532%" y2="100.653671%" id="linearGradient-14">
            <stop stop-color="#FBBF5B" offset="0%"></stop>
            <stop stop-color="#FC5899" offset="78.82%"></stop>
            <stop stop-color="#E44DA3" offset="100%"></stop>
        </linearGradient>
        <linearGradient x1="-5206.52391%" y1="10.6282609%" x2="12538.4804%" y2="140.786957%" id="linearGradient-15">
            <stop stop-color="#FBBF5B" offset="0%"></stop>
            <stop stop-color="#FC5899" offset="78.82%"></stop>
            <stop stop-color="#E44DA3" offset="100%"></stop>
        </linearGradient>
    </defs>
    <g id="Page-1" stroke="none" stroke-width="1" fill="none" fill-rule="evenodd">
        <g id="Splashscreen-Pre-Launch" transform="translate(-25.000000, -144.000000)" fill-rule="nonzero">
            <g id="socialocean_mainLogo_gradiant-Copy" transform="translate(25.136809, 144.000000)">
                <g id="Group" transform="translate(0.000000, 5.079949)">
                    <path d="M140.639698,45.0614298 C139.955653,45.7786712 139.499623,46.1372919 139.180402,46.6303953 C136.535427,50.6648781 132.704774,52.1441884 128.007663,51.3821195 C123.310553,50.6200505 120.209548,47.7959126 118.932663,43.313154 C117.017337,36.4097057 117.290955,29.6407402 121.258417,23.4545333 C123.948995,19.2407402 127.597236,16.0579816 133.069598,16.7303953 C134.939322,16.9545333 136.763442,18.2545333 138.405151,19.3303953 C138.861181,19.6441884 138.678769,20.8993609 138.769975,21.751085 C138.040327,21.8407402 137.173869,22.1545333 136.535427,21.9303953 C130.880653,20.0924643 128.007663,21.4821195 127.369221,27.3097057 C126.821985,32.2407402 126.913191,37.351085 127.414824,42.3269471 C127.597236,43.9855678 129.46696,46.1821195 131.108668,46.8097057 C133.616834,47.7959126 136.535427,46.6752229 137.629899,44.1200505 C138.99799,40.8028091 140.001256,37.2614298 140.411683,33.7200505 C140.913317,29.6407402 140.548492,25.4269471 140.594095,21.3028091 C140.685302,17.9855678 142.190201,16.5062574 145.245603,16.5959126 C148.164196,16.6855678 149.44108,18.1200505 149.44108,21.3924643 C149.44108,27.0407402 149.304271,32.689016 149.486683,38.3372919 C149.577889,41.251085 150.170729,44.1200505 150.809171,46.989016 C151.538819,50.1269471 150.763568,51.3372919 147.525754,51.4717747 C143.877513,51.651085 142.190201,50.1717747 140.639698,45.0614298 Z" id="Path" fill="url(#linearGradient-1)"></path>
                    <path d="M314.478392,44.8821195 C311.696608,48.9166022 308.823618,51.7407402 303.944095,51.5166022 C298.927764,51.2476367 295.051508,49.2303953 293.409799,44.5234988 C290.582412,36.4545333 291.084045,28.5648781 296.60201,21.5717747 C299.246985,18.2097057 302.712814,16.1028091 307.227513,16.6855678 C308.686809,16.8648781 310.237312,17.4924643 311.42299,18.389016 C312.243844,18.9717747 312.426256,20.3614298 312.882286,21.3924643 C311.833417,21.4372919 310.647739,21.8407402 309.690075,21.4821195 C306.041834,20.1821195 303.533668,20.8545333 302.211181,24.3959126 C299.794221,30.8062574 299.429397,37.4407402 301.800754,43.9855678 C302.986432,47.2579816 306.908291,48.3786712 309.644472,45.9579816 C311.42299,44.389016 313.110302,41.9234988 313.429523,39.6821195 C314.250377,33.4959126 314.341583,27.2200505 314.706407,20.989016 C314.888819,17.7166022 316.986558,15.9683264 320.178769,16.6407402 C322.869347,17.2234988 323.598995,19.0614298 323.553392,21.6166022 C323.462186,28.0717747 323.462186,34.5269471 323.644598,40.9821195 C323.690201,43.1786712 324.237437,45.4200505 324.967085,47.4821195 C325.879146,49.9924643 324.602261,50.889016 322.595729,51.3821195 C319.084296,52.2338436 316.211307,50.4407402 315.20804,46.8545333 C315.116834,46.3614298 314.888819,45.913154 314.478392,44.8821195 Z" id="Path" fill="url(#linearGradient-2)"></path>
                    <path d="M56.1373116,16.7303953 C59.8767588,17.1786712 63.1601759,18.9717747 65.5315327,22.2441884 C71.5511307,30.5372919 67.5380653,45.5993609 58.0982412,49.7234988 C52.5346734,52.1441884 46.6518844,52.3683264 40.9971106,50.0372919 C38.7625628,49.0959126 36.5280151,47.3476367 35.1143216,45.3752229 C27.9546482,35.4683264 33.8830402,19.8234988 45.8310302,16.9993609 C48.1111809,16.4614298 50.6649497,16.9097057 53.0363065,17.313154 C53.7659548,17.4476367 54.2219849,18.9269471 54.8148241,19.7786712 C53.8571608,20.1821195 52.9451005,20.989016 51.9874372,20.989016 C45.6486181,20.7648781 42.8668342,22.5579816 42.1827889,28.7441884 C41.7267588,33.0924643 42.0915829,37.5752229 42.6844221,41.9234988 C43.1404523,44.8821195 45.420603,46.8097057 48.7496231,47.0786712 C52.2610553,47.3476367 55.0428392,46.1372919 56.6845477,42.9545333 C59.3751256,37.6648781 59.4663317,31.9717747 58.7366834,26.3234988 C58.3262563,23.051085 57.0493719,19.9579816 56.1373116,16.7303953 Z" id="Path" fill="url(#linearGradient-3)"></path>
                    <path d="M339.605653,22.6924643 C342.43304,17.9407402 345.990075,16.1028091 350.778392,16.5062574 C355.703518,16.9097057 359.21495,19.3752229 360.446231,24.0372919 C361.221482,26.8614298 361.586307,29.7752229 361.859925,32.689016 C362.315955,38.113154 362.54397,43.5372919 362.863191,48.9614298 C362.863191,49.3200505 362.771985,49.9924643 362.589573,50.0372919 C360.58304,50.5303953 358.485302,51.3821195 356.524372,51.1579816 C355.429899,51.0234988 353.925,49.1407402 353.742588,47.8407402 C353.286558,45.1959126 353.696985,42.4166022 353.605779,39.6821195 C353.46897,35.4683264 353.332161,31.2097057 352.921734,26.9959126 C352.55691,23.2752229 350.641583,21.1234988 347.996608,20.8545333 C344.713191,20.4959126 342.113819,22.1993609 340.836935,25.8303953 C340.244095,27.5338436 339.742462,29.3269471 339.696859,31.1200505 C339.514447,36.589016 339.514447,42.013154 339.514447,47.4821195 C339.514447,49.1855678 340.01608,51.0234988 337.462312,51.4717747 C334.042085,52.0545333 331.397111,51.113154 330.713065,48.7821195 C330.348241,47.5269471 330.348241,46.1821195 330.348241,44.8821195 C330.302638,37.7097057 330.257035,30.5372919 330.211432,23.3648781 C330.211432,22.6476367 330.165829,21.9303953 330.211432,21.2579816 C330.348241,19.0166022 330.804271,16.9545333 333.631658,16.6407402 C336.413442,16.3269471 338.146357,17.5372919 338.967211,20.1372919 C339.058417,20.6752229 339.195226,21.2579816 339.605653,22.6924643 Z" id="Path" fill="url(#linearGradient-4)"></path>
                    <path d="M213.741332,16.7303953 C217.936809,17.313154 221.220226,19.2855678 223.54598,22.7372919 C228.927136,30.7614298 225.278894,44.9717747 216.614322,49.2752229 C210.731533,52.189016 204.48392,52.413154 198.418719,49.9028091 C196.275377,49.0062574 194.223241,47.213154 192.809548,45.3303953 C187.154774,37.6200505 189.298116,20.0924643 203.43505,16.9545333 C205.715201,16.4614298 208.26897,16.8648781 210.640327,17.2234988 C211.369975,17.3579816 211.826005,18.8372919 212.418844,19.689016 C211.506784,20.1372919 210.503518,21.0338436 209.682663,20.8993609 C204.575126,19.913154 200.653266,22.1545333 199.969221,28.3407402 C199.467588,32.7786712 199.786809,37.351085 200.334045,41.789016 C200.698869,44.6579816 202.933417,46.5407402 206.080025,46.8993609 C209.409045,47.2579816 212.282035,46.3614298 214.01495,43.4028091 C214.881407,41.9234988 215.611055,40.2648781 215.884673,38.651085 C217.024749,31.389016 217.663191,24.1717747 213.604523,17.4476367 C213.513317,17.3579816 213.650126,17.089016 213.741332,16.7303953 Z" id="Path" fill="url(#linearGradient-5)"></path>
                    <path d="M287.207789,43.2683264 C286.660553,47.2579816 283.28593,50.2166022 278.269598,51.2924643 C270.334673,52.951085 262.445352,49.3648781 259.709171,42.7752229 C255.331281,32.1959126 261.031658,19.7338436 271.520352,17.0441884 C275.852638,15.9234988 280.139322,16.4166022 284.19799,18.1200505 C288.758291,20.0028091 290.308794,24.3062574 288.43907,29.013154 C286.250126,34.4372919 277.494347,38.8752229 271.79397,37.4407402 C271.429146,37.351085 271.155528,36.9924643 270.471482,36.4993609 C272.021985,35.7821195 273.298869,35.1993609 274.484548,34.6166022 C278.269598,32.689016 280.686558,29.7303953 280.048116,25.3821195 C279.820101,23.813154 278.725628,21.5717747 277.494347,21.1234988 C275.852638,20.5407402 273.481281,21.0338436 271.79397,21.8855678 C270.517085,22.513154 269.605025,24.3062574 269.057789,25.7407402 C267.233668,30.4924643 266.868844,35.4683264 268.145729,40.3545333 C269.787437,46.7648781 274.758166,48.5579816 282.145854,46.0924643 C283.924372,45.4648781 285.474874,44.2545333 287.207789,43.2683264 Z" id="Path" fill="url(#linearGradient-6)"></path>
                    <path d="M1.04886935,42.7752229 C4.60590452,46.0028091 8.75577889,47.3476367 13.4984925,46.989016 C16.5082915,46.7648781 18.9252513,45.1062574 19.4268844,42.551085 C19.9741206,39.6821195 18.3324121,37.889016 15.9154523,36.813154 C13.1336683,35.5579816 10.1694724,34.6166022 7.34208543,33.4062574 C2.82738693,31.4786712 1.32248744,29.0579816 1.64170854,24.7545333 C1.91532663,21.0786712 4.37788945,18.389016 8.66457286,17.2683264 C14.1369347,15.8338436 19.4724874,16.1028091 24.4888191,18.7476367 C25.4008794,19.2407402 25.8113065,20.6752229 26.4497487,21.7062574 C25.3096734,21.8407402 24.169598,22.1545333 23.1207286,22.0200505 C20.6125628,21.7062574 18.104397,20.8993609 15.5962312,20.8545333 C13.3160804,20.8097057 10.9903266,22.0648781 11.0815327,24.4407402 C11.1271357,25.9648781 12.6320352,27.9821195 14.0457286,28.7441884 C17.2379397,30.4924643 20.8861809,31.4786712 24.260804,32.9579816 C27.4530151,34.3924643 29.5507538,36.8579816 29.5507538,40.489016 C29.5507538,44.2545333 28.1826633,47.3476367 24.6712312,49.3648781 C18.7884422,52.7269471 8.20854271,52.0097057 3.10100503,47.6614298 C1.77851759,46.5407402 1.00326633,44.8372919 0,43.4028091 C0.319221106,43.313154 0.684045226,43.0441884 1.04886935,42.7752229 Z" id="Path" fill="url(#linearGradient-7)"></path>
                    <path d="M157.284799,24.5303953 C157.284799,17.7614298 157.239196,10.9924643 157.284799,4.26832638 C157.330402,1.13039534 158.789698,-0.124777069 161.890704,0.00970568932 C164.900503,0.144188448 166.177387,1.57867121 166.131784,4.71660224 C165.949372,14.8028091 165.630151,24.889016 165.584548,34.9752229 C165.584548,39.3683264 165.721357,43.851085 168.594347,47.7062574 C168.913568,48.1545333 168.503141,49.813154 168.18392,49.9028091 C165.994975,50.4855678 163.714824,51.1579816 161.571482,50.9786712 C159.10892,50.7545333 157.60402,48.8717747 157.60402,46.3166022 C157.558417,39.0545333 157.60402,31.7924643 157.60402,24.5303953 C157.467211,24.5303953 157.376005,24.5303953 157.284799,24.5303953 Z" id="Path" fill="url(#linearGradient-8)"></path>
                    <path d="M99.870603,42.551085 C98.9585427,47.5269471 94.6262563,51.0683264 89.3363065,51.4269471 C76.1114322,52.3234988 68.6325377,43.851085 71.4143216,30.9855678 C73.4208543,21.5717747 80.0788945,16.013154 89.0626884,16.6407402 C91.2972362,16.8200505 93.4861809,18.0303953 95.5383166,19.0614298 C96.1311558,19.3752229 96.2223618,20.7200505 96.4959799,21.6166022 C95.5839196,21.7062574 94.5350503,22.1545333 93.759799,21.8855678 C87.1929648,19.5097057 82.5870603,21.5717747 80.9453518,28.251085 C80.1701005,31.4338436 79.7140704,34.8855678 80.1244975,38.113154 C81.3557789,46.989016 89.7011307,50.0821195 97.0888191,44.7476367 C98.0008794,44.1200505 98.8217337,43.4028091 99.870603,42.551085 Z" id="Path" fill="url(#linearGradient-9)"></path>
                    <path d="M257.474623,42.5062574 C256.562563,47.6166022 252.047864,51.1579816 246.757915,51.4717747 C232.848995,52.2338436 226.054146,43.5821195 229.383166,29.2821195 C231.572111,19.9579816 242.106407,13.9959126 250.451759,17.4476367 C251.637437,17.9407402 252.73191,18.7924643 253.689573,19.6441884 C254.1,20.0028091 254.328015,21.213154 254.054397,21.4821195 C253.598367,21.9303953 252.686307,22.0648781 251.956658,22.1993609 C251.728643,22.2441884 251.409422,21.9752229 251.135804,21.8407402 C245.298618,19.5097057 240.145477,21.5717747 238.686181,27.6234988 C237.728518,31.5234988 237.500503,35.8717747 238.138945,39.8614298 C239.324623,47.1683264 247.761181,49.589016 254.419221,44.9717747 C255.331281,44.2993609 256.152136,43.5372919 257.474623,42.5062574 Z" id="Path" fill="url(#linearGradient-10)"></path>
                    <path d="M111.088945,30.1786712 C111.955402,36.1407402 112.867462,42.1028091 113.597111,48.1097057 C113.688317,49.0062574 113.049874,50.4855678 112.320226,50.889016 C108.352764,53.0407402 103.792462,50.6648781 103.61005,46.2717747 C103.290829,37.9786712 103.108417,29.7303953 103.017211,21.4372919 C102.971608,17.7166022 105.11495,16.0579816 108.763191,16.6407402 C110.769724,16.9545333 111.909799,17.9855678 111.909799,20.0924643 C111.909799,23.4097057 111.909799,26.7717747 111.909799,30.089016 C111.636181,30.089016 111.362563,30.1338436 111.088945,30.1786712 Z" id="Path" fill="url(#linearGradient-11)"></path>
                </g>
                <circle id="Oval" fill="url(#linearGradient-12)" cx="103.363191" cy="12.5" r="3.5"></circle>
                <circle id="Oval" fill="url(#linearGradient-13)" cx="111.363191" cy="8.5" r="2.5"></circle>
                <path d="M108.541119,4.99098915 C109.905232,4.87237062 110.972799,3.68618531 110.85418,2.3220722 C110.735562,0.957959095 109.549376,-0.109607686 108.185263,0.00901084503 C106.82115,0.127629376 105.753583,1.31381469 105.872202,2.6779278 C105.99082,4.04204091 107.177006,5.10960769 108.541119,4.99098915 Z" id="Path" fill="url(#linearGradient-14)"></path>
                <circle id="Oval" fill="url(#linearGradient-15)" cx="112.863191" cy="1" r="1"></circle>
            </g>
        </g>
    </g>
</svg>